# xmcd
#
# Track frame offsets:
#	150
#	15429
#	27064
#	43044
#	65978
#	77552
#	93364
#	110106
#	122630
#	137316
#	152707
#	170313
#	198171
#
# Disc length: 4440 seconds
#
# Revision: 1
# Processed by: cddbd v1.5.1PL0 Copyright (c) Steve Scherf et al.
# Submitted via: EasyCDDAExtractor 8.2.1.1
#
DISCID=9e11560d
DTITLE=hackensaw boys - love what you do
DYEAR=2005
DGENRE=country
TTITLE0=sun's work undone
TTITLE1=cannonball
TTITLE2=kiss you down there
TTITLE3=alabama shamrock
TTITLE4=we are many
TTITLE5=bordertown
TTITLE6=high faller
TTITLE7=mecklenburg county
TTITLE8=buildings are the cages
TTITLE9=parking lot song
TTITLE10=fiddle my blues away
TTITLE11=all good dogs
TTITLE12=data track
EXTD=
EXTT0=
EXTT1=
EXTT2=
EXTT3=
EXTT4=
EXTT5=
EXTT6=
EXTT7=
EXTT8=
EXTT9=
EXTT10=
EXTT11=
EXTT12=
PLAYORDER=
